<?xml version="1.0" encoding="UTF-8"?>
<!-- Generated by Pixelmator Pro 2.4.3 -->
<svg width="100" height="27" viewBox="0 0 100 27" xmlns="http://www.w3.org/2000/svg" xmlns:xlink="http://www.w3.org/1999/xlink">
    <path id="Path" fill="#232324" stroke="none" d="M 38.685314 22.77272 L 35.006992 11.926575 L 37.545456 11.926575 L 39.776222 19.220276 L 42.188808 11.898605 L 44.216782 11.898605 L 46.643356 19.220276 L 48.881119 11.926575 L 51.349651 11.926575 L 47.678322 22.77272 L 45.615383 22.77272 L 43.18182 15.72377 L 40.755245 22.77272 L 38.692307 22.77272 Z M 55.9021 22.877625 C 53.342655 22.877625 51.454544 20.989517 51.454544 18.618881 L 51.454544 18.590912 C 51.454544 16.213287 53.363636 14.297195 55.930069 14.297195 C 58.482517 14.297195 60.377625 16.185318 60.377625 18.562943 L 60.377625 18.590912 C 60.377625 20.954544 58.468529 22.877625 55.9021 22.877625 Z M 55.930069 20.863632 C 57.265736 20.863632 58.069931 19.835663 58.069931 18.618881 L 58.069931 18.590912 C 58.069931 17.37413 57.188808 16.311188 55.9021 16.311188 C 54.559441 16.311188 53.762238 17.339157 53.762238 18.555939 L 53.762238 18.590912 C 53.762238 19.800705 54.636364 20.863632 55.930069 20.863632 Z M 62.069927 22.695801 L 62.069927 14.444061 L 64.405594 14.444061 L 64.405594 16.108398 C 64.881119 14.975525 65.650352 14.234268 67.034966 14.290207 L 67.034966 16.737762 L 66.92308 16.737762 C 65.370628 16.737762 64.412582 17.681824 64.412582 19.646851 L 64.412582 22.695801 L 62.076923 22.695801 Z M 68.503494 22.695801 L 68.503494 11.465042 L 70.839157 11.465042 L 70.839157 17.45105 L 73.573425 14.444061 L 76.370628 14.444061 L 73.237762 17.695801 L 76.482513 22.695801 L 73.804199 22.695801 L 71.650345 19.32518 L 70.839157 20.185318 L 70.839157 22.695801 L 68.496506 22.695801 Z M 81.132866 22.877625 C 78.650345 22.877625 76.825172 21.143356 76.825172 18.618881 L 76.825172 18.590912 C 76.825172 16.234268 78.503494 14.297195 80.9021 14.297195 C 83.650345 14.297195 84.916084 16.437057 84.916084 18.77272 C 84.916084 18.954544 84.9021 19.171326 84.881119 19.388107 L 79.146858 19.388107 C 79.377617 20.45105 80.111885 21.003494 81.160835 21.003494 C 81.944061 21.003494 82.517479 20.758743 83.160835 20.157349 L 84.496506 21.346161 C 83.68084 22.360977 82.434013 22.931244 81.132866 22.884613 Z M 79.111893 17.926575 L 82.63636 17.926575 C 82.496498 16.877625 81.881119 16.178329 80.9021 16.178329 C 79.930069 16.178329 79.293709 16.863632 79.111893 17.926575 Z M 86.650345 22.695801 L 86.650345 14.444061 L 88.993004 14.444061 L 88.993004 16.108398 C 89.468536 14.975525 90.237762 14.234268 91.622375 14.290207 L 91.622375 16.737762 L 91.496506 16.737762 C 89.944054 16.737762 88.993004 17.681824 88.993004 19.646851 L 88.993004 22.695801 L 86.643356 22.695801 Z M 95.979019 22.849655 C 94.825172 22.849655 93.531471 22.465042 92.440559 21.604889 L 93.440559 20.066437 C 94.186119 20.648239 95.090912 20.98967 96.034966 21.045456 C 96.713287 21.045456 97.020981 20.800705 97.020981 20.437057 L 97.020981 20.4021 C 97.020981 19.898605 96.223778 19.72377 95.314682 19.45105 C 94.160843 19.108398 92.853149 18.569931 92.853149 16.975525 L 92.853149 16.940552 C 92.853149 15.262238 94.209785 14.32518 95.867134 14.32518 C 96.916084 14.32518 98.055939 14.67482 98.944061 15.283218 L 98.055939 16.891602 C 97.384277 16.455795 96.615845 16.19165 95.818176 16.122375 C 95.258736 16.122375 94.958046 16.37413 94.958046 16.695801 L 94.958046 16.72377 C 94.958046 17.185318 95.748245 17.4021 96.636368 17.709793 C 97.790215 18.094406 99.132866 18.646851 99.132866 20.157349 L 99.132866 20.185318 C 99.132866 22.017487 97.762238 22.849655 95.979019 22.849655 Z"/>
    <path id="path1" fill="#656566" stroke="none" d="M 84.678322 5.905594 C 84.444664 5.905594 84.255241 5.716171 84.255241 5.482513 C 84.255241 5.248856 84.444664 5.059448 84.678322 5.059448 C 84.909088 5.059448 85.104897 5.248245 85.104897 5.479019 C 85.104897 5.709793 84.909088 5.898605 84.678322 5.898605 Z M 84.678322 5.136368 C 84.586212 5.136337 84.497986 5.173401 84.433517 5.239182 C 84.369057 5.304962 84.333786 5.393936 84.335663 5.486008 C 84.335663 5.667831 84.48951 5.821671 84.678322 5.821671 C 84.867134 5.821671 85.020981 5.667831 85.020981 5.479019 C 85.020981 5.297195 84.867134 5.143356 84.678322 5.143356 Z M 84.895103 5.702805 L 84.797203 5.702805 L 84.713287 5.541962 L 84.601402 5.541962 L 84.601402 5.702805 L 84.51049 5.702805 L 84.51049 5.241257 L 84.734261 5.241257 C 84.832169 5.241257 84.895103 5.304199 84.895103 5.388107 C 84.89801 5.451553 84.857811 5.508987 84.797203 5.527969 L 84.895103 5.702805 Z M 84.727272 5.458038 C 84.762238 5.458038 84.797203 5.437057 84.797203 5.388107 C 84.797203 5.339157 84.769226 5.318176 84.727272 5.318176 L 84.58741 5.318176 L 84.58741 5.458038 L 84.727272 5.458038 Z M 40.216782 5.017487 L 41.307693 5.017487 L 41.307693 7.961533 L 43.216782 7.961533 L 43.216782 8.905594 L 40.209789 8.905594 L 40.209789 5.017487 Z M 44.335663 6.975525 L 44.335663 6.961533 C 44.335663 5.842651 45.244755 4.933563 46.454544 4.933563 C 47.001991 4.914673 47.533794 5.118027 47.928947 5.497375 C 48.324108 5.876724 48.549 6.399796 48.552448 6.947556 L 48.552448 6.961533 C 48.552448 8.080414 47.643356 8.982513 46.440559 8.982513 C 45.89193 9.003357 45.358288 8.800858 44.961594 8.421295 C 44.564903 8.041733 44.339054 7.517548 44.335663 6.968536 Z M 47.454544 6.975525 L 47.454544 6.961533 C 47.454544 6.4021 47.04895 5.912582 46.447552 5.912582 C 45.853149 5.912582 45.454544 6.388107 45.454544 6.954544 L 45.454544 6.961533 C 45.454544 7.520981 45.860138 8.010483 46.454544 8.010483 C 47.055946 8.010483 47.454544 7.534958 47.454544 6.968536 Z M 49.895103 7.199295 L 49.895103 5.017487 L 51 5.017487 L 51 7.185318 C 51 7.744751 51.286716 8.003494 51.72028 8.003494 C 52.153847 8.003494 52.440559 7.751755 52.440559 7.206299 L 52.440559 5.017487 L 53.545456 5.017487 L 53.545456 7.171326 C 53.545456 8.430069 52.825176 8.975525 51.706295 8.975525 C 50.587414 8.975525 49.888115 8.416077 49.888115 7.199295 Z M 55.209789 5.017487 L 56.72028 5.017487 C 58.118881 5.017487 58.937061 5.814682 58.937061 6.940552 L 58.937061 6.954544 C 58.937061 8.073425 58.111889 8.912582 56.699299 8.912582 L 55.209789 8.912582 L 55.209789 5.010483 Z M 56.748253 7.954544 C 57.391609 7.954544 57.825176 7.5979 57.825176 6.961533 L 57.825176 6.961533 C 57.825176 6.332169 57.391609 5.975525 56.741261 5.975525 L 56.300697 5.975525 L 56.300697 7.940567 L 56.741261 7.940567 L 56.741261 7.947556 Z M 60.524475 5.017487 L 63.664337 5.017487 L 63.664337 5.961533 L 61.608391 5.961533 L 61.608391 6.62587 L 63.468529 6.62587 L 63.468529 7.520981 L 61.608391 7.520981 L 61.608391 8.905594 L 60.524475 8.905594 L 60.524475 5.017487 Z M 65.174828 5.017487 L 66.258743 5.017487 L 66.258743 7.961533 L 68.160843 7.961533 L 68.160843 8.905594 L 65.174828 8.905594 L 65.174828 5.017487 Z M 71 4.989517 L 72.048958 4.989517 L 73.72728 8.905594 L 72.552444 8.905594 L 72.272728 8.213287 L 70.755241 8.213287 L 70.475525 8.912582 L 69.335663 8.912582 L 71 4.989517 Z M 71.958038 7.37413 L 71.524475 6.269226 L 71.083916 7.37413 L 71.958038 7.37413 Z M 75.118881 5.017487 L 76.979027 5.017487 C 77.580421 5.017487 77.993011 5.171326 78.258743 5.437057 C 78.48951 5.660843 78.608391 5.961533 78.608391 6.346161 L 78.608391 6.360138 C 78.608391 6.961533 78.286713 7.353149 77.804192 7.54895 L 78.741257 8.919586 L 77.482521 8.919586 L 76.68531 7.744751 L 76.209793 7.744751 L 76.209793 8.919586 L 75.118881 8.919586 L 75.118881 5.017487 Z M 76.930069 6.884613 C 77.300697 6.884613 77.51049 6.702805 77.51049 6.42308 L 77.51049 6.409088 C 77.51049 6.108398 77.286713 5.954544 76.92308 5.954544 L 76.202797 5.954544 L 76.202797 6.884613 L 76.930069 6.884613 Z M 80.174828 5.017487 L 83.321678 5.017487 L 83.321678 5.926575 L 81.258743 5.926575 L 81.258743 6.520981 L 83.139862 6.520981 L 83.139862 7.37413 L 81.251747 7.37413 L 81.251747 7.989517 L 83.363632 7.989517 L 83.363632 8.905594 L 80.181816 8.905594 L 80.181816 5.017487 Z M 37.832169 7.430069 C 37.677578 7.785873 37.32497 8.014511 36.937065 8.010483 C 36.342659 8.010483 35.937065 7.520981 35.937065 6.961533 L 35.937065 6.961533 C 35.937065 6.4021 36.335663 5.912582 36.930069 5.912582 C 37.346939 5.909241 37.7202 6.170242 37.860142 6.562943 L 39.020981 6.562943 C 38.814533 5.593445 37.941647 4.912231 36.95105 4.947556 C 35.741261 4.947556 34.832169 5.856644 34.832169 6.975525 L 34.832169 6.982513 C 34.83556 7.53154 35.061405 8.055725 35.458099 8.435272 C 35.854794 8.814835 36.388432 9.017334 36.937065 8.996506 C 37.972027 8.996506 38.783215 8.332169 38.993004 7.444061 L 37.846153 7.437057 Z"/>
    <linearGradient id="linearGradient1" x1="5.456787" y1="26.241259" x2="2.806968" y2="2.982105" gradientUnits="userSpaceOnUse">
        <stop offset="1e-05" stop-color="#eb6f07" stop-opacity="1"/>
        <stop offset="1" stop-color="#fab743" stop-opacity="1"/>
    </linearGradient>
    <path id="path2" fill="url(#linearGradient1)" stroke="none" d="M 7.482518 0.765732 L 10.909091 6.947556 L 7.762238 12.611893 C 7.455957 13.161865 7.455957 13.831146 7.762238 14.381119 L 10.909091 20.059433 L 7.482518 26.241257 C 6.837757 25.9216 6.302341 25.417831 5.944056 24.793701 L 0.48951 15.318176 C -0.157192 14.192322 -0.157192 12.807678 0.48951 11.681824 L 5.944056 2.206299 C 6.303424 1.584763 6.838733 1.083511 7.482518 0.765732 Z"/>
    <linearGradient id="linearGradient2" x1="8.920004" y1="24.020811" x2="4.680109" y2="16.637483" gradientUnits="userSpaceOnUse">
        <stop offset="1e-05" stop-color="#d96504" stop-opacity="1"/>
        <stop offset="1" stop-color="#d96504" stop-opacity="0"/>
    </linearGradient>
    <path id="path3" fill="url(#linearGradient2)" stroke="none" opacity="0.7" d="M 7.762238 12.618881 C 7.458546 13.167038 7.458546 13.832962 7.762238 14.381119 L 10.909091 20.059433 L 7.482518 26.241257 C 6.837757 25.9216 6.302341 25.417831 5.944056 24.793701 L 0.48951 15.318176 C 0.055944 14.569931 2.482517 13.67482 7.762238 12.62587 Z"/>
    <linearGradient id="linearGradient3" x1="7.023497" y1="1.380818" x2="9.837203" y2="6.414608" gradientUnits="userSpaceOnUse">
        <stop offset="1e-05" stop-color="#eb6f07" stop-opacity="1"/>
        <stop offset="1" stop-color="#eb720a" stop-opacity="0"/>
    </linearGradient>
    <path id="path4" fill="url(#linearGradient3)" stroke="none" opacity="0.5" d="M 7.832168 1.388107 L 10.909091 6.947556 L 10.398602 7.835663 L 7.685315 3.241257 C 6.902098 1.961533 5.706294 2.62587 4.20979 5.213287 L 4.433567 4.828674 L 5.944056 2.206299 C 6.299694 1.586792 6.829912 1.08577 7.468532 0.765732 L 7.825175 1.388107 Z"/>
    <linearGradient id="linearGradient4" x1="21.817308" y1="26.611888" x2="18.283187" y2="2.66958" gradientUnits="userSpaceOnUse">
        <stop offset="1e-05" stop-color="#ee6f05" stop-opacity="1"/>
        <stop offset="1" stop-color="#fab743" stop-opacity="1"/>
    </linearGradient>
    <path id="path5" fill="url(#linearGradient4)" stroke="none" d="M 23.146852 2.206299 L 28.601398 11.681824 C 29.251747 12.800705 29.251747 14.199295 28.601398 15.318176 L 23.146852 24.793701 C 22.497696 25.918076 21.298315 26.611053 20 26.611893 L 14.545455 26.611893 L 21.328671 14.381119 C 21.632362 13.832962 21.632362 13.167038 21.328671 12.618881 L 14.545455 0.388107 L 20 0.388107 C 21.298315 0.388947 22.497696 1.081924 23.146852 2.206299 Z"/>
    <linearGradient id="linearGradient5" x1="11.574955" y1="26.618881" x2="21.960877" y2="0.388112" gradientUnits="userSpaceOnUse">
        <stop offset="1e-05" stop-color="#d96504" stop-opacity="0.8"/>
        <stop offset="0.498" stop-color="#d96504" stop-opacity="0.2"/>
        <stop offset="1" stop-color="#d96504" stop-opacity="0"/>
    </linearGradient>
    <path id="path6" fill="url(#linearGradient5)" stroke="none" d="M 19.72028 26.569931 L 14.335665 26.618881 L 20.853148 14.32518 C 21.149029 13.770065 21.149029 13.104065 20.853148 12.54895 L 14.335665 0.388107 L 15.566434 0.388107 L 22.405594 12.493011 C 22.735352 13.07486 22.732693 13.78775 22.3986 14.367126 C 20.92668 16.925308 19.46513 19.489426 18.013987 22.059433 C 16.685314 24.395111 17.258741 25.898605 19.72028 26.569931 Z"/>
    <linearGradient id="linearGradient6" x1="14.519479" y1="26.611888" x2="11.099516" y2="2.66958" gradientUnits="userSpaceOnUse">
        <stop offset="1e-05" stop-color="#ffa95f" stop-opacity="1"/>
        <stop offset="1" stop-color="#ffebc8" stop-opacity="1"/>
    </linearGradient>
    <path id="path7" fill="url(#linearGradient6)" stroke="none" d="M 9.090909 26.611893 C 8.531468 26.611893 7.972028 26.479019 7.482518 26.241257 L 14.20979 14.108398 C 14.41958 13.730774 14.41958 13.269226 14.20979 12.891602 L 7.482518 0.765732 C 7.982574 0.518127 8.532907 0.388916 9.090909 0.388107 L 14.545455 0.388107 L 21.328671 12.618881 C 21.632362 13.167038 21.632362 13.832962 21.328671 14.381119 L 14.545455 26.611893 L 9.090909 26.611893 Z"/>
    <linearGradient id="linearGradient7" x1="14.534953" y1="0.676573" x2="21.289027" y2="13.185315" gradientUnits="userSpaceOnUse">
        <stop offset="1e-05" stop-color="#ffffff" stop-opacity="0.5"/>
        <stop offset="1" stop-color="#ffffff" stop-opacity="0.1"/>
    </linearGradient>
    <path id="path8" fill="url(#linearGradient7)" stroke="none" opacity="0.6" d="M 20.853148 12.891602 L 13.916084 0.388107 L 14.545455 0.388107 L 21.328671 12.618881 C 21.632362 13.167038 21.632362 13.832962 21.328671 14.381119 L 14.545455 26.611893 L 13.916084 26.611893 L 20.853148 14.108398 C 21.062939 13.730774 21.062939 13.269226 20.853148 12.891602 Z"/>
    <linearGradient id="linearGradient8" x1="6.45495" y1="27.562853" x2="14.983013" y2="12.499077" gradientUnits="userSpaceOnUse">
        <stop offset="1e-05" stop-color="#ffffff" stop-opacity="0.5"/>
        <stop offset="1" stop-color="#ffffff" stop-opacity="0.1"/>
    </linearGradient>
    <path id="path9" fill="url(#linearGradient8)" stroke="none" opacity="0.6" d="M 14.20979 12.891602 L 7.482518 0.765732 C 7.692307 0.653839 7.944056 0.569931 8.181818 0.5 C 9.664335 3.164337 11.853147 7.206299 14.755245 12.618881 C 15.058936 13.167038 15.058936 13.832962 14.755245 14.381119 L 8.076923 26.472031 C 7.839161 26.4021 7.713287 26.353149 7.489511 26.248245 L 14.202798 14.115387 C 14.412588 13.737762 14.412588 13.27623 14.202798 12.898605 Z"/>
</svg>
